<svg width="20.000000" height="14.000000" viewBox="0 0 20 14" fill="none" xmlns="http://www.w3.org/2000/svg" xmlns:xlink="http://www.w3.org/1999/xlink">
	<desc>
			Created with Pixso.
	</desc>
	<defs/>
	<path id="Vector" d="M20 13C20 13.55 19.55 14 19 14L10.99 14C10.73 14 10.47 13.89 10.29 13.7C10.1 13.52 10 13.26 10 13C10 12.74 10.1 12.48 10.29 12.3C10.47 12.11 10.73 12 10.99 12L19 12C19.55 12 20 12.45 20 13ZM20 7C20 7.55 19.55 7.99 19 7.99L0.99 7.99C0.73 7.99 0.47 7.89 0.29 7.7C0.1 7.51 0 7.26 0 7C0 6.73 0.1 6.48 0.29 6.29C0.47 6.1 0.73 6 0.99 6L19 6C19.55 6 20 6.45 20 7ZM19 1.99C19.26 1.99 19.52 1.88 19.7 1.69C19.89 1.51 20 1.25 20 0.99C20 0.73 19.89 0.47 19.7 0.29C19.52 0.1 19.26 0 19 0L6.99 0C6.86 0 6.73 0.02 6.61 0.07C6.49 0.12 6.38 0.19 6.29 0.29C6.19 0.38 6.12 0.49 6.07 0.61C6.02 0.73 6 0.86 6 0.99C6 1.12 6.02 1.25 6.07 1.37C6.12 1.49 6.19 1.6 6.29 1.69C6.38 1.79 6.49 1.86 6.61 1.91C6.73 1.96 6.86 1.99 6.99 1.99L19 1.99Z" fill="#FAF4EA" fill-opacity="1.000000" fill-rule="nonzero"/>
</svg>
