<svg aria-hidden="true" style="position: absolute; width: 0; height: 0; overflow: hidden;" version="1.1" xmlns="http://www.w3.org/2000/svg" xmlns:xlink="http://www.w3.org/1999/xlink">
    <defs>
        <symbol id="icon-facebook" viewBox="0 0 32 32">
            <path d="M0 16c0-8.84 7.16-16 16-16 8.83 0 16 7.16 16 16 0 8.83-7.17 16-16 16-8.84 0-16-7.17-16-16zM17.66 25.4v-8.7h2.41l0.31-3h-2.72l0.010-1.5c0-0.79 0.070-1.2 1.19-1.2h1.51v-3h-2.41c-2.88 0-3.9 1.45-3.9 3.9v1.8h-1.8v3h1.8v8.7h3.6z"></path>
        </symbol>
        <symbol id="icon-instagram" viewBox="0 0 32 32">
            <path d="M0 16c0-8.84 7.16-16 16-16 8.83 0 16 7.16 16 16 0 8.83-7.17 16-16 16-8.84 0-16-7.17-16-16zM16 7.46c-2.32 0-2.61 0.010-3.52 0.050s-1.53 0.19-2.070 0.4c-0.57 0.22-1.040 0.51-1.52 0.98-0.47 0.48-0.76 0.95-0.98 1.52-0.21 0.54-0.36 1.16-0.4 2.070s-0.050 1.2-0.050 3.52c0 2.31 0.010 2.6 0.050 3.51 0.050 0.91 0.19 1.53 0.4 2.070 0.22 0.57 0.51 1.040 0.98 1.52 0.48 0.47 0.95 0.76 1.52 0.98 0.54 0.21 1.16 0.36 2.070 0.4s1.2 0.050 3.51 0.050c2.32 0 2.61-0.010 3.52-0.050s1.53-0.19 2.070-0.4c0.57-0.22 1.040-0.51 1.52-0.98 0.47-0.48 0.76-0.95 0.98-1.52 0.21-0.54 0.35-1.16 0.4-2.070 0.040-0.91 0.050-1.2 0.050-3.51 0-2.32-0.010-2.61-0.050-3.52-0.050-0.91-0.19-1.53-0.4-2.070-0.22-0.57-0.51-1.040-0.98-1.52-0.48-0.47-0.95-0.76-1.52-0.98-0.54-0.21-1.16-0.36-2.070-0.4s-1.2-0.050-3.52-0.050h0.010z"></path>
            <path d="M15.23 9c0.23 0 0.48 0 0.77 0 2.27 0 2.54 0.010 3.44 0.050 0.84 0.040 1.29 0.18 1.59 0.29 0.4 0.16 0.68 0.34 0.98 0.64s0.48 0.58 0.64 0.98c0.11 0.3 0.25 0.75 0.29 1.59 0.040 0.9 0.050 1.17 0.050 3.44 0 2.28-0.010 2.55-0.050 3.45-0.040 0.83-0.18 1.28-0.29 1.59-0.16 0.39-0.34 0.68-0.64 0.97-0.3 0.3-0.58 0.49-0.98 0.64-0.3 0.12-0.75 0.26-1.59 0.3-0.9 0.040-1.17 0.050-3.44 0.050-2.28 0-2.55-0.010-3.45-0.050-0.83-0.040-1.29-0.18-1.59-0.3-0.4-0.15-0.68-0.34-0.98-0.64-0.3-0.29-0.48-0.58-0.64-0.98-0.11-0.3-0.25-0.75-0.29-1.58-0.040-0.9-0.050-1.17-0.050-3.45s0.010-2.55 0.050-3.45c0.040-0.83 0.18-1.28 0.29-1.58 0.16-0.4 0.34-0.68 0.64-0.98s0.58-0.48 0.98-0.64c0.3-0.12 0.76-0.26 1.59-0.29 0.78-0.040 1.090-0.050 2.68-0.050v0zM20.55 10.42c-0.56 0-1.020 0.45-1.020 1.020s0.46 1.020 1.020 1.020c0.57 0 1.020-0.45 1.020-1.020s-0.45-1.020-1.020-1.020zM16 11.61c-2.42 0-4.39 1.97-4.39 4.39s1.97 4.38 4.39 4.38c2.42 0 4.38-1.96 4.38-4.38s-1.96-4.39-4.38-4.39z"></path>
            <path d="M16 13.15c1.57 0 2.84 1.27 2.84 2.85 0 1.57-1.27 2.84-2.84 2.84-1.58 0-2.85-1.27-2.85-2.84 0-1.58 1.27-2.85 2.85-2.85z"></path>
        </symbol>
        <symbol id="icon-arrow" viewBox="0 0 43 32">
            <path d="M5.789 15.998l11.89-11.89c0.961-0.961 0.961-2.45 0-3.411-0.937-0.937-2.45-0.937-3.387 0l-13.596 13.596c-0.937 0.937-0.937 2.45 0 3.387l13.596 13.596c0.937 0.961 2.45 0.961 3.387 0 0.961-0.961 0.961-2.45 0-3.387l-11.89-11.89z"></path>
            <path d="M8.191 13.596l9.488-9.488c0.961-0.961 0.961-2.45 0-3.411-0.937-0.937-2.45-0.937-3.387 0l-13.596 13.596c-0.937 0.937-0.937 2.45 0 3.387l13.596 13.596c0.937 0.961 2.45 0.961 3.387 0 0.961-0.961 0.961-2.45 0-3.387l-9.488-9.488h34.47v-4.804h-34.47z"></path>
        </symbol>        
        <symbol id="icon-menu" viewBox="0 0 45 32">
            <path d="M45.217 29.714c0 1.257-1.029 2.286-2.286 2.286h-18.309c-0.594 0-1.189-0.251-1.6-0.686-0.409-0.401-0.663-0.96-0.663-1.578 0-0.008 0-0.015 0-0.023v0.001c0-0.594 0.229-1.189 0.663-1.6 0.411-0.434 1.006-0.686 1.6-0.686h18.309c1.257 0 2.286 1.029 2.286 2.286zM45.217 16c0 1.257-1.029 2.263-2.286 2.263h-41.166c-0.594 0-1.189-0.229-1.6-0.663-0.409-0.407-0.663-0.971-0.663-1.594 0-0.002 0-0.004 0-0.006v0c0-0.617 0.229-1.189 0.663-1.623 0.411-0.434 1.006-0.663 1.6-0.663h41.166c1.257 0 2.286 1.029 2.286 2.286zM42.931 4.549c0.594 0 1.189-0.251 1.6-0.686 0.434-0.411 0.686-1.006 0.686-1.6s-0.251-1.189-0.686-1.6c-0.401-0.409-0.96-0.663-1.578-0.663-0.008 0-0.015 0-0.023 0h-27.45c-0.297 0-0.594 0.046-0.869 0.16s-0.526 0.274-0.731 0.503c-0.229 0.206-0.389 0.457-0.503 0.731s-0.16 0.571-0.16 0.869 0.046 0.594 0.16 0.869 0.274 0.526 0.503 0.731c0.407 0.417 0.972 0.678 1.599 0.686h27.453z"></path>
        </symbol>
    </defs>
</svg>
