<svg aria-hidden="true" style="position: absolute; width: 0; height: 0; overflow: hidden;" version="1.1" xmlns="http://www.w3.org/2000/svg" xmlns:xlink="http://www.w3.org/1999/xlink">
<defs>
<symbol id="icon-Vector-1" viewBox="0 0 46 32">
<path d="M45.714 29.714c0 1.257-1.029 2.286-2.286 2.286h-18.309c-0.594 0-1.189-0.251-1.6-0.686-0.409-0.401-0.663-0.96-0.663-1.578 0-0.008 0-0.015 0-0.023v0.001c0-0.594 0.229-1.189 0.663-1.6 0.411-0.434 1.006-0.686 1.6-0.686h18.309c1.257 0 2.286 1.029 2.286 2.286zM45.714 16c0 1.257-1.029 2.263-2.286 2.263h-41.166c-0.594 0-1.189-0.229-1.6-0.663-0.409-0.407-0.663-0.971-0.663-1.594 0-0.002 0-0.004 0-0.006v0c0-0.617 0.229-1.189 0.663-1.623 0.411-0.434 1.006-0.663 1.6-0.663h41.166c1.257 0 2.286 1.029 2.286 2.286zM43.429 4.549c0.594 0 1.189-0.251 1.6-0.686 0.434-0.411 0.686-1.006 0.686-1.6s-0.251-1.189-0.686-1.6c-0.401-0.409-0.96-0.663-1.578-0.663-0.008 0-0.015 0-0.023 0h-27.45c-0.297 0-0.594 0.046-0.869 0.16s-0.526 0.274-0.731 0.503c-0.229 0.206-0.389 0.457-0.503 0.731s-0.16 0.571-0.16 0.869 0.046 0.594 0.16 0.869 0.274 0.526 0.503 0.731c0.407 0.417 0.972 0.678 1.599 0.686h27.453z"></path>
</symbol>
</defs>
</svg>
